<mxfile host="app.diagrams.net" agent="Mozilla/5.0 (Windows NT 10.0; Win64; x64) AppleWebKit/537.36 (KHTML, like Gecko) Chrome/134.0.0.0 Safari/537.36" version="26.1.0">
  <diagram name="Página-1" id="_O9Sp7b_oeuf4xbjDzCd">
    <mxGraphModel dx="1434" dy="746" grid="1" gridSize="10" guides="1" tooltips="1" connect="1" arrows="1" fold="1" page="1" pageScale="1" pageWidth="2910" pageHeight="1030" math="0" shadow="0">
      <root>
        <mxCell id="0" />
        <mxCell id="1" parent="0" />
        <mxCell id="4nS9QQrtOacxWqZYsx-n-1" value="Tecnologías agrupadas" style="swimlane;childLayout=stackLayout;resizeParent=1;resizeParentMax=0;horizontal=1;startSize=20;horizontalStack=0;html=1;" vertex="1" parent="1">
          <mxGeometry x="40" y="40" width="1690" height="570" as="geometry" />
        </mxCell>
        <mxCell id="4nS9QQrtOacxWqZYsx-n-2" value="OASIS - Bint" style="swimlane;startSize=20;horizontal=0;html=1;" vertex="1" parent="4nS9QQrtOacxWqZYsx-n-1">
          <mxGeometry y="20" width="1690" height="190" as="geometry" />
        </mxCell>
        <mxCell id="4nS9QQrtOacxWqZYsx-n-6" value="Inicio" style="points=[[0.145,0.145,0],[0.5,0,0],[0.855,0.145,0],[1,0.5,0],[0.855,0.855,0],[0.5,1,0],[0.145,0.855,0],[0,0.5,0]];shape=mxgraph.bpmn.event;html=1;verticalLabelPosition=bottom;labelBackgroundColor=#ffffff;verticalAlign=top;align=center;perimeter=ellipsePerimeter;outlineConnect=0;aspect=fixed;outline=standard;symbol=general;fillColor=#f8cecc;strokeColor=#b85450;" vertex="1" parent="4nS9QQrtOacxWqZYsx-n-2">
          <mxGeometry x="50" y="70" width="50" height="50" as="geometry" />
        </mxCell>
        <mxCell id="4nS9QQrtOacxWqZYsx-n-8" value="Ingresar a módulo Bint opción 930 &quot;Carga Tecnologías Agrupadas&quot;" style="points=[[0.25,0,0],[0.5,0,0],[0.75,0,0],[1,0.25,0],[1,0.5,0],[1,0.75,0],[0.75,1,0],[0.5,1,0],[0.25,1,0],[0,0.75,0],[0,0.5,0],[0,0.25,0]];shape=mxgraph.bpmn.task2;whiteSpace=wrap;rectStyle=rounded;size=10;html=1;container=1;expand=0;collapsible=0;taskMarker=user;fillColor=#fff2cc;strokeColor=#d6b656;" vertex="1" parent="4nS9QQrtOacxWqZYsx-n-2">
          <mxGeometry x="130" y="55" width="120" height="80" as="geometry" />
        </mxCell>
        <mxCell id="4nS9QQrtOacxWqZYsx-n-7" style="edgeStyle=orthogonalEdgeStyle;rounded=0;orthogonalLoop=1;jettySize=auto;html=1;" edge="1" parent="4nS9QQrtOacxWqZYsx-n-2" source="4nS9QQrtOacxWqZYsx-n-6" target="4nS9QQrtOacxWqZYsx-n-8">
          <mxGeometry relative="1" as="geometry">
            <mxPoint x="150" y="95" as="targetPoint" />
          </mxGeometry>
        </mxCell>
        <mxCell id="4nS9QQrtOacxWqZYsx-n-10" value="Clic botón&amp;nbsp;&lt;div&gt;&quot;Aceptar&quot;&lt;/div&gt;" style="points=[[0.145,0.145,0],[0.5,0,0],[0.855,0.145,0],[1,0.5,0],[0.855,0.855,0],[0.5,1,0],[0.145,0.855,0],[0,0.5,0]];shape=mxgraph.bpmn.event;html=1;verticalLabelPosition=bottom;labelBackgroundColor=#ffffff;verticalAlign=top;align=center;perimeter=ellipsePerimeter;outlineConnect=0;aspect=fixed;outline=throwing;symbol=general;fillColor=#f5f5f5;fontColor=#333333;strokeColor=#666666;" vertex="1" parent="4nS9QQrtOacxWqZYsx-n-2">
          <mxGeometry x="290" y="70" width="50" height="50" as="geometry" />
        </mxCell>
        <mxCell id="4nS9QQrtOacxWqZYsx-n-9" style="edgeStyle=orthogonalEdgeStyle;rounded=0;orthogonalLoop=1;jettySize=auto;html=1;" edge="1" parent="4nS9QQrtOacxWqZYsx-n-2" source="4nS9QQrtOacxWqZYsx-n-8" target="4nS9QQrtOacxWqZYsx-n-10">
          <mxGeometry relative="1" as="geometry">
            <mxPoint x="330" y="95" as="targetPoint" />
          </mxGeometry>
        </mxCell>
        <mxCell id="4nS9QQrtOacxWqZYsx-n-12" value="Cargar archivo TXT" style="points=[[0.25,0,0],[0.5,0,0],[0.75,0,0],[1,0.25,0],[1,0.5,0],[1,0.75,0],[0.75,1,0],[0.5,1,0],[0.25,1,0],[0,0.75,0],[0,0.5,0],[0,0.25,0]];shape=mxgraph.bpmn.task2;whiteSpace=wrap;rectStyle=rounded;size=10;html=1;container=1;expand=0;collapsible=0;taskMarker=user;fillColor=#fff2cc;strokeColor=#d6b656;" vertex="1" parent="4nS9QQrtOacxWqZYsx-n-2">
          <mxGeometry x="380" y="55" width="120" height="80" as="geometry" />
        </mxCell>
        <mxCell id="4nS9QQrtOacxWqZYsx-n-11" style="edgeStyle=orthogonalEdgeStyle;rounded=0;orthogonalLoop=1;jettySize=auto;html=1;" edge="1" parent="4nS9QQrtOacxWqZYsx-n-2" source="4nS9QQrtOacxWqZYsx-n-10" target="4nS9QQrtOacxWqZYsx-n-12">
          <mxGeometry relative="1" as="geometry">
            <mxPoint x="390" y="95" as="targetPoint" />
          </mxGeometry>
        </mxCell>
        <mxCell id="4nS9QQrtOacxWqZYsx-n-14" value="Aplicar validaciones de estructura" style="points=[[0.25,0,0],[0.5,0,0],[0.75,0,0],[1,0.25,0],[1,0.5,0],[1,0.75,0],[0.75,1,0],[0.5,1,0],[0.25,1,0],[0,0.75,0],[0,0.5,0],[0,0.25,0]];shape=mxgraph.bpmn.task2;whiteSpace=wrap;rectStyle=rounded;size=10;html=1;container=1;expand=0;collapsible=0;taskMarker=script;fillColor=#fff2cc;strokeColor=#d6b656;" vertex="1" parent="4nS9QQrtOacxWqZYsx-n-2">
          <mxGeometry x="540" y="55" width="120" height="80" as="geometry" />
        </mxCell>
        <mxCell id="4nS9QQrtOacxWqZYsx-n-13" style="edgeStyle=orthogonalEdgeStyle;rounded=0;orthogonalLoop=1;jettySize=auto;html=1;" edge="1" parent="4nS9QQrtOacxWqZYsx-n-2" source="4nS9QQrtOacxWqZYsx-n-12" target="4nS9QQrtOacxWqZYsx-n-14">
          <mxGeometry relative="1" as="geometry">
            <mxPoint x="550" y="95" as="targetPoint" />
          </mxGeometry>
        </mxCell>
        <mxCell id="4nS9QQrtOacxWqZYsx-n-16" value="¿Cumple con&amp;nbsp;&lt;div&gt;la estructura?&lt;/div&gt;" style="points=[[0.25,0.25,0],[0.5,0,0],[0.75,0.25,0],[1,0.5,0],[0.75,0.75,0],[0.5,1,0],[0.25,0.75,0],[0,0.5,0]];shape=mxgraph.bpmn.gateway2;html=1;verticalLabelPosition=top;labelBackgroundColor=#ffffff;verticalAlign=bottom;align=center;perimeter=rhombusPerimeter;outlineConnect=0;outline=none;symbol=none;fillColor=#d5e8d4;strokeColor=#82b366;fontSize=10;labelPosition=center;" vertex="1" parent="4nS9QQrtOacxWqZYsx-n-2">
          <mxGeometry x="710" y="70" width="50" height="50" as="geometry" />
        </mxCell>
        <mxCell id="4nS9QQrtOacxWqZYsx-n-15" style="edgeStyle=orthogonalEdgeStyle;rounded=0;orthogonalLoop=1;jettySize=auto;html=1;" edge="1" parent="4nS9QQrtOacxWqZYsx-n-2" source="4nS9QQrtOacxWqZYsx-n-14" target="4nS9QQrtOacxWqZYsx-n-16">
          <mxGeometry relative="1" as="geometry">
            <mxPoint x="720" y="95" as="targetPoint" />
          </mxGeometry>
        </mxCell>
        <mxCell id="4nS9QQrtOacxWqZYsx-n-3" value="OASIS - Ehab" style="swimlane;startSize=20;horizontal=0;html=1;" vertex="1" parent="4nS9QQrtOacxWqZYsx-n-1">
          <mxGeometry y="210" width="1690" height="120" as="geometry" />
        </mxCell>
        <mxCell id="4nS9QQrtOacxWqZYsx-n-4" value="OASIS - Epro" style="swimlane;startSize=20;horizontal=0;html=1;" vertex="1" parent="4nS9QQrtOacxWqZYsx-n-1">
          <mxGeometry y="330" width="1690" height="120" as="geometry">
            <mxRectangle y="260" width="1000" height="30" as="alternateBounds" />
          </mxGeometry>
        </mxCell>
        <mxCell id="4nS9QQrtOacxWqZYsx-n-5" value="OASIS -&amp;nbsp;" style="swimlane;startSize=20;horizontal=0;html=1;" vertex="1" parent="4nS9QQrtOacxWqZYsx-n-1">
          <mxGeometry y="450" width="1690" height="120" as="geometry">
            <mxRectangle y="260" width="1000" height="30" as="alternateBounds" />
          </mxGeometry>
        </mxCell>
      </root>
    </mxGraphModel>
  </diagram>
</mxfile>
